<svg xmlns="http://www.w3.org/2000/svg" viewBox="0 0 100 100">
  <path d="M 34.205,14.732 L 34.205,71.972 C 31.505,69.591 27.804,68.121 23.720,68.121 C 15.456,68.121 8.756,74.136 8.756,81.555 C 8.756,88.975 15.456,94.990 23.720,94.990 C 31.984,94.990 38.684,88.975 38.684,81.555 L 38.684,31.461 L 86.811,23.264 L 86.811,62.249 C 84.111,59.868 80.410,58.399 76.326,58.399 C 68.062,58.399 61.362,64.413 61.362,71.833 C 61.362,79.252 68.062,85.267 76.326,85.267 C 84.590,85.267 91.290,79.252 91.290,71.833 L 91.290,5.009 L 34.205,14.732 Z" fill="#6BB5D8"/>
</svg>